<?xml version="1.0" encoding="UTF-8" standalone="no"?>
<!-- Generator: Adobe Illustrator 19.0.0, SVG Export Plug-In . SVG Version: 6.00 Build 0)  -->

<svg
   xmlns:dc="http://purl.org/dc/elements/1.1/"
   xmlns:cc="http://creativecommons.org/ns#"
   xmlns:rdf="http://www.w3.org/1999/02/22-rdf-syntax-ns#"
   xmlns:svg="http://www.w3.org/2000/svg"
   xmlns="http://www.w3.org/2000/svg"
   xmlns:sodipodi="http://sodipodi.sourceforge.net/DTD/sodipodi-0.dtd"
   xmlns:inkscape="http://www.inkscape.org/namespaces/inkscape"
   version="1.1"
   id="Layer_1"
   x="0px"
   y="0px"
   viewBox="0 0 512.001 512.001"
   style="enable-background:new 0 0 512.001 512.001;"
   xml:space="preserve"
   sodipodi:docname="lotus.svg"
   inkscape:version="0.92.1 r15371"><metadata
     id="metadata43"><rdf:RDF><cc:Work
         rdf:about=""><dc:format>image/svg+xml</dc:format><dc:type
           rdf:resource="http://purl.org/dc/dcmitype/StillImage" /></cc:Work></rdf:RDF></metadata><defs
     id="defs41" /><sodipodi:namedview
     pagecolor="#ffffff"
     bordercolor="#666666"
     borderopacity="1"
     objecttolerance="10"
     gridtolerance="10"
     guidetolerance="10"
     inkscape:pageopacity="0"
     inkscape:pageshadow="2"
     inkscape:window-width="1920"
     inkscape:window-height="1029"
     id="namedview39"
     showgrid="false"
     inkscape:zoom="1.8437465"
     inkscape:cx="261.38746"
     inkscape:cy="249.48006"
     inkscape:window-x="0"
     inkscape:window-y="27"
     inkscape:window-maximized="1"
     inkscape:current-layer="Layer_1" /><g
     id="g6"
     style="fill:#b3b3b3"><g
       id="g4"
       style="fill:#b3b3b3"><path
         d="M508.374,362.235c-1.457-1.966-23.959-31.866-58.32-53.623c36.613-51.562,25.901-127.469,25.381-130.97    c-1.194-8.031-7.499-14.338-15.531-15.531c-2.922-0.434-56.355-7.98-103.928,10.871c-21.638-67.258-85.57-115.363-88.821-117.773    c-6.523-4.835-15.441-4.835-21.964,0c-3.254,2.412-67.33,50.629-88.891,118.012C108.576,154.061,54.697,161.673,51.76,162.11    c-8.031,1.193-14.338,7.499-15.531,15.531c-0.521,3.504-11.252,79.553,25.485,131.116c-34.23,21.745-56.633,51.516-58.087,53.477    c-4.836,6.523-4.836,15.441,0,21.964c2.306,3.112,57.325,76.221,128.671,76.22c59.992,0,108.431-51.686,123.702-69.989    c15.271,18.303,63.712,69.99,123.702,69.989c71.346,0,126.365-73.109,128.671-76.22    C513.21,377.676,513.21,368.758,508.374,362.235z M362.899,210.125c26.461-12.78,58.926-13.572,77.247-12.724    c1.103,23.861-0.548,71.716-27.876,99.041c-24.78,24.781-66.447,28.447-91.778,28.092c22.065-28.324,42.578-65.969,42.578-108.061    C363.07,214.344,363.001,212.231,362.899,210.125z M71.528,197.286c20.748-0.975,52.59,0.917,77.908,13.278    c-0.089,1.961-0.15,3.928-0.15,5.91c0,42.136,20.555,79.816,42.645,108.149c-27.573,0.396-68.829-4.475-92.535-28.182    C72.028,269.074,70.415,221.107,71.528,197.286z M132.298,423.538c-38.641,0-73.65-32.669-89.743-50.321    c9.696-10.635,26.264-26.715,46.352-37.825c31.802,21.739,72.286,26.07,99.434,26.07c8.679,0,15.978-0.441,21.21-0.896    c4.936,4.62,9.178,9.017,12.565,12.736C203.801,393.418,168.573,423.538,132.298,423.538z M256.154,339.013    c-22.146-19.471-69.986-67.866-69.986-122.54c0-54.437,47.86-102.972,70.01-122.516c22.148,19.543,70.012,68.078,70.012,122.516    C326.189,270.939,278.281,319.494,256.154,339.013z M379.703,423.538c-38.704,0-73.76-32.776-89.817-50.407    c3.553-3.902,7.75-8.183,12.46-12.544c5.214,0.448,12.43,0.875,20.98,0.875c27.19,0,67.757-4.347,99.581-26.172    c20.176,11.115,36.82,27.263,46.542,37.926C453.357,390.867,418.348,423.538,379.703,423.538z"
         id="path2"
         style="fill:#b3b3b3" /></g></g><g
     id="g8" /><g
     id="g10" /><g
     id="g12" /><g
     id="g14" /><g
     id="g16" /><g
     id="g18" /><g
     id="g20" /><g
     id="g22" /><g
     id="g24" /><g
     id="g26" /><g
     id="g28" /><g
     id="g30" /><g
     id="g32" /><g
     id="g34" /><g
     id="g36" /></svg>